<svg id="Layer_1" data-name="Layer 1" xmlns="http://www.w3.org/2000/svg" viewBox="0 0 212 63"><text transform="translate(72.28 45.63)" style="font-size:40px;fill:#fff;font-family:Roboto-Condensed, Roboto;letter-spacing:0.0010009765625em">Flywheel</text><path d="M4.68,16.26A29.8,29.8,0,0,0,1.34,37.43a1.37,1.37,0,0,0,.08.35,30.46,30.46,0,0,0,3.4,8.64,1.39,1.39,0,0,0,.18.31,29.59,29.59,0,0,0,4.66,5.91l0,0a29.64,29.64,0,0,0,6,4.56,30,30,0,1,0-11-41M3.82,37.54,13.3,21.08a21.34,21.34,0,0,1,27.59-7.59,20.4,20.4,0,0,1,7.74,27.63,20.47,20.47,0,0,1-26.94,8.11l2.54-4.4a15.32,15.32,0,0,0,20-6l.06-.09s0-.08,0-.11A15.37,15.37,0,0,0,17.36,23.79L6,43.54A28.09,28.09,0,0,1,3.82,37.54Zm8.16,14L23.05,32.32c3.29-5.7,10.88-7.51,16.93-4a13.11,13.11,0,0,1,3.86,3.35A12.71,12.71,0,0,1,43,35.83a10.7,10.7,0,0,0-6.25-3.56,10.93,10.93,0,0,0-10.54,4.4l-.08.12L15.87,54.53A27.88,27.88,0,0,1,12,51.54ZM7.34,46,19.45,25a13,13,0,0,1,8-6.27,12.87,12.87,0,0,1,15.93,9.1,16.16,16.16,0,0,0-2.22-1.58C34,22.07,25,24.28,21,31.13L10.25,49.79A26,26,0,0,1,7.34,46Zm18.08-3.19L28.15,38a8.26,8.26,0,0,1,13.63.11A12.94,12.94,0,0,1,25.42,42.76ZM54.6,45A27.63,27.63,0,0,1,18,55.73l2.55-4.42A22.62,22.62,0,0,0,36.91,53,22.38,22.38,0,0,0,50.6,42.49l.12-.21A22.8,22.8,0,0,0,42,11.38a23.75,23.75,0,0,0-30.77,8.45l-8,14A27.6,27.6,0,1,1,54.6,45Z" style="fill:#fff"/></svg>